<svg width="62" height="62" viewBox="0 0 62 62" fill="none" xmlns="http://www.w3.org/2000/svg">
<path d="M14.4657 22.7326C19.0311 22.7326 22.7321 19.0316 22.7321 14.4661C22.7321 9.9007 19.031 6.19983 14.4657 6.19983C9.90033 6.19983 6.19922 9.90082 6.19922 14.4663C6.2043 19.0295 9.90226 22.7275 14.4657 22.7326ZM14.4657 8.26647C17.8897 8.26647 20.6654 11.0422 20.6654 14.4663C20.6654 17.8903 17.8897 20.6661 14.4657 20.6661C11.0416 20.6661 8.26586 17.8903 8.26586 14.4663C8.26925 11.0435 11.0429 8.26986 14.4657 8.26647Z" fill="url(#paint0_linear_487_2003)"/>
<path d="M13.4336 1.03326V3.0999C13.4336 3.67059 13.8963 4.13316 14.4669 4.13316C15.0375 4.13316 15.5001 3.67047 15.5001 3.0999V1.03326C15.5001 0.462563 15.0374 0 14.4669 0C13.8963 0 13.4336 0.462684 13.4336 1.03326Z" fill="url(#paint1_linear_487_2003)"/>
<path d="M13.4336 25.8325V27.8991C13.4336 28.4698 13.8963 28.9323 14.4669 28.9323C15.0375 28.9323 15.5001 28.4697 15.5001 27.8991V25.8325C15.5001 25.2618 15.0374 24.7992 14.4669 24.7992C13.8963 24.7992 13.4336 25.2619 13.4336 25.8325Z" fill="url(#paint2_linear_487_2003)"/>
<path d="M28.932 14.4662C28.932 13.8955 28.4693 13.433 27.8987 13.433H25.8321C25.2614 13.433 24.7988 13.8957 24.7988 14.4662C24.7988 15.0369 25.2614 15.4995 25.8321 15.4995H27.8987C28.4694 15.4995 28.932 15.0368 28.932 14.4662Z" fill="url(#paint3_linear_487_2003)"/>
<path d="M1.03326 15.4995H3.0999C3.67059 15.4995 4.13316 15.0368 4.13316 14.4662C4.13316 13.8955 3.67047 13.433 3.0999 13.433H1.03326C0.462563 13.433 0 13.8957 0 14.4662C0 15.0368 0.462563 15.4995 1.03326 15.4995Z" fill="url(#paint4_linear_487_2003)"/>
<path d="M4.10627 19.2544L2.31559 20.2877C1.99325 20.4709 1.79382 20.8129 1.79297 21.1836C1.79212 21.5544 1.99011 21.8972 2.3116 22.0819C2.63309 22.2666 3.02893 22.2649 3.34885 22.0773L5.13953 21.044C5.46187 20.8608 5.6613 20.5189 5.66215 20.1481C5.663 19.7773 5.46502 19.4345 5.14352 19.2498C4.82203 19.0652 4.42619 19.0669 4.10627 19.2544Z" fill="url(#paint5_linear_487_2003)"/>
<path d="M24.3106 9.8164C24.492 9.81677 24.6704 9.76906 24.8273 9.678L26.618 8.64474C26.9403 8.46153 27.1398 8.11957 27.1406 7.7488C27.1415 7.37802 26.9435 7.03521 26.622 6.85055C26.3005 6.66589 25.9047 6.66759 25.5847 6.85515L23.7941 7.88841C23.389 8.12224 23.1916 8.59897 23.3126 9.05063C23.4336 9.50217 23.843 9.81628 24.3106 9.8164Z" fill="url(#paint6_linear_487_2003)"/>
<path d="M7.88805 5.13966C8.17527 5.62971 8.80421 5.79596 9.29608 5.51189C9.78794 5.22793 9.95844 4.60008 9.67763 4.10628L8.64437 2.31657C8.46116 1.99423 8.11921 1.7948 7.74843 1.79395C7.37765 1.7931 7.03485 1.99108 6.85019 2.31258C6.66552 2.63407 6.66722 3.02991 6.85479 3.34983L7.88805 5.13966Z" fill="url(#paint7_linear_487_2003)"/>
<path d="M19.632 23.4145C19.1379 23.6997 18.9685 24.3317 19.2539 24.826L20.2871 26.6157C20.4703 26.9381 20.8123 27.1375 21.1831 27.1383C21.5539 27.1392 21.8967 26.9412 22.0813 26.6197C22.266 26.2982 22.2643 25.9024 22.0767 25.5825L21.0435 23.7927C20.7582 23.2985 20.1263 23.1292 19.632 23.4145Z" fill="url(#paint8_linear_487_2003)"/>
<path d="M23.7922 21.0442L25.5829 22.0774C25.9028 22.265 26.2986 22.2667 26.6201 22.082C26.9416 21.8974 27.1396 21.5546 27.1388 21.1838C27.1379 20.813 26.9385 20.471 26.6161 20.2878L24.8255 19.2546C24.3317 18.9739 23.7039 19.1443 23.4199 19.6361C23.1358 20.128 23.3023 20.7569 23.7922 21.0442Z" fill="url(#paint9_linear_487_2003)"/>
<path d="M2.31559 8.64462L4.10627 9.67787C4.42619 9.86544 4.82203 9.86714 5.14352 9.68248C5.46502 9.49781 5.663 9.15501 5.66215 8.78423C5.6613 8.41346 5.46187 8.0715 5.13953 7.88829L3.34885 6.85491C3.02893 6.66734 2.63309 6.66565 2.3116 6.85031C1.99011 7.03497 1.79212 7.37778 1.79297 7.74855C1.79382 8.11945 1.99325 8.46129 2.31559 8.64462Z" fill="url(#paint10_linear_487_2003)"/>
<path d="M20.2884 2.31669L19.2552 4.1064C19.0676 4.42632 19.0659 4.82216 19.2506 5.14365C19.4352 5.46515 19.778 5.66313 20.1488 5.66228C20.5196 5.66143 20.8616 5.462 21.0448 5.13966L22.078 3.34995C22.2656 3.03003 22.2673 2.63419 22.0826 2.3127C21.898 1.9912 21.5552 1.79322 21.1844 1.79407C20.8137 1.79492 20.4718 1.99435 20.2884 2.31669Z" fill="url(#paint11_linear_487_2003)"/>
<path d="M7.88805 23.7928L6.85479 25.5825C6.66722 25.9024 6.66552 26.2983 6.85019 26.6197C7.03485 26.9412 7.37765 27.1392 7.74843 27.1384C8.11921 27.1375 8.46116 26.9381 8.64437 26.6158L9.67763 24.826C9.95832 24.3322 9.78794 23.7045 9.29608 23.4204C8.80421 23.1365 8.17539 23.3027 7.88805 23.7928Z" fill="url(#paint12_linear_487_2003)"/>
<path d="M59.9313 54.7649H57.8647V53.7316C57.8576 51.8526 56.584 50.2149 54.7648 49.7451V39.1341L61.2518 33.7744C61.6727 33.4278 61.9384 32.9279 61.9902 32.385C62.042 31.8422 61.8755 31.3011 61.5277 30.8811L60.2278 29.3084C59.8813 28.8874 59.3812 28.6217 58.8383 28.5701C58.2954 28.5185 57.7543 28.6853 57.3347 29.0335L40.0031 43.3561C39.5822 43.7028 39.3165 44.2027 39.2647 44.7455C39.213 45.2884 39.3793 45.8295 39.7271 46.2493L41.0218 47.8189C41.7452 48.6931 43.04 48.8161 43.915 48.0938L48.5648 44.2551V49.7451C46.7455 50.2148 45.472 51.8526 45.465 53.7316V54.7649H40.3069V53.7316C40.2999 51.8526 39.0262 50.2149 37.207 49.7451V39.1341L43.694 33.7744C44.1149 33.4278 44.3806 32.9279 44.4324 32.385C44.4841 31.8422 44.3177 31.3011 43.97 30.8811L42.6753 29.3115C42.3287 28.8905 41.8286 28.6248 41.2858 28.5733C40.7428 28.5217 40.2018 28.6884 39.7821 29.0367L22.4453 43.3561C22.0244 43.7028 21.7587 44.2027 21.7069 44.7455C21.6551 45.2884 21.8216 45.8295 22.1693 46.2493L23.4682 47.8221C24.1915 48.6962 25.4864 48.8192 26.3614 48.0969L31.0112 44.2572V49.7471C29.1918 50.2168 27.9183 51.8547 27.9113 53.7337V54.7669H22.7448V53.7316C22.7377 51.8526 21.4642 50.2149 19.6449 49.7451V39.1341L26.1319 33.7744C26.5528 33.4278 26.8185 32.9279 26.8703 32.385C26.9221 31.8422 26.7556 31.3011 26.4079 30.8811L25.109 29.3115C24.7625 28.8905 24.2624 28.6248 23.7195 28.5733C23.1766 28.5217 22.6355 28.6884 22.2158 29.0367L4.87919 43.3561C4.45828 43.7028 4.19261 44.2027 4.14078 44.7455C4.08908 45.2884 4.25546 45.8295 4.60323 46.2493L5.90203 47.8221C6.62542 48.6962 7.92024 48.8192 8.79523 48.0969L13.4451 44.2572V49.7471C11.6257 50.2168 10.3522 51.8547 10.3452 53.7337V54.7669H2.06664C0.925247 54.7669 0 55.6922 0 56.8336V59.9334C0 61.0748 0.925247 62.0001 2.06664 62.0001H59.9314C61.0728 62.0001 61.9981 61.0748 61.9981 59.9334V56.8315C61.9979 55.6901 61.0727 54.7649 59.9313 54.7649ZM42.6111 46.4984L41.3185 44.9485L58.6346 30.6269L59.9365 32.1769L42.6111 46.4984ZM52.6982 40.8411V49.5983H50.6316V42.5481L52.6982 40.8411ZM47.5317 53.7315C47.5317 52.5901 48.457 51.6648 49.5984 51.6648H53.7315C54.8729 51.6648 55.7981 52.5901 55.7981 53.7315V54.7647H47.5317V53.7315ZM25.0533 46.4984L23.7658 44.9485L41.0819 30.6269L42.3838 32.1769L25.0533 46.4984ZM35.1404 40.8463V49.5983H33.0737V42.5481L35.1404 40.8463ZM29.9739 53.7315C29.9739 52.5901 30.8992 51.6648 32.0406 51.6648H36.1737C37.3151 51.6648 38.2404 52.5901 38.2404 53.7315V54.7647H29.9739V53.7315ZM7.48722 46.4984L6.19967 44.9485L23.5157 30.6269L24.8177 32.1769L7.48722 46.4984ZM17.5744 40.8463V49.5983H15.5077V42.5481L17.5744 40.8463ZM12.4078 53.7315C12.4078 52.5901 13.3331 51.6648 14.4745 51.6648H18.6076C19.749 51.6648 20.6743 52.5901 20.6743 53.7315V54.7647H12.4078V53.7315ZM59.9313 59.9313H2.06664V56.8314H59.9314V59.9313H59.9313Z" fill="url(#paint13_linear_487_2003)"/>
<defs>
<linearGradient id="paint0_linear_487_2003" x1="22.7321" y1="14.4662" x2="6.19922" y2="14.4662" gradientUnits="userSpaceOnUse">
<stop stop-color="#0DB02B"/>
<stop offset="1" stop-color="#28A9E2"/>
</linearGradient>
<linearGradient id="paint1_linear_487_2003" x1="15.5001" y1="2.06658" x2="13.4336" y2="2.06658" gradientUnits="userSpaceOnUse">
<stop stop-color="#0DB02B"/>
<stop offset="1" stop-color="#28A9E2"/>
</linearGradient>
<linearGradient id="paint2_linear_487_2003" x1="15.5001" y1="26.8658" x2="13.4336" y2="26.8658" gradientUnits="userSpaceOnUse">
<stop stop-color="#0DB02B"/>
<stop offset="1" stop-color="#28A9E2"/>
</linearGradient>
<linearGradient id="paint3_linear_487_2003" x1="28.932" y1="14.4662" x2="24.7988" y2="14.4662" gradientUnits="userSpaceOnUse">
<stop stop-color="#0DB02B"/>
<stop offset="1" stop-color="#28A9E2"/>
</linearGradient>
<linearGradient id="paint4_linear_487_2003" x1="4.13316" y1="14.4662" x2="0" y2="14.4662" gradientUnits="userSpaceOnUse">
<stop stop-color="#0DB02B"/>
<stop offset="1" stop-color="#28A9E2"/>
</linearGradient>
<linearGradient id="paint5_linear_487_2003" x1="5.66215" y1="20.6659" x2="1.79297" y2="20.6659" gradientUnits="userSpaceOnUse">
<stop stop-color="#0DB02B"/>
<stop offset="1" stop-color="#28A9E2"/>
</linearGradient>
<linearGradient id="paint6_linear_487_2003" x1="27.1406" y1="8.26483" x2="23.2773" y2="8.26483" gradientUnits="userSpaceOnUse">
<stop stop-color="#0DB02B"/>
<stop offset="1" stop-color="#28A9E2"/>
</linearGradient>
<linearGradient id="paint7_linear_487_2003" x1="9.81288" y1="3.72225" x2="6.71289" y2="3.72225" gradientUnits="userSpaceOnUse">
<stop stop-color="#0DB02B"/>
<stop offset="1" stop-color="#28A9E2"/>
</linearGradient>
<linearGradient id="paint8_linear_487_2003" x1="22.2186" y1="25.2071" x2="19.1152" y2="25.2071" gradientUnits="userSpaceOnUse">
<stop stop-color="#0DB02B"/>
<stop offset="1" stop-color="#28A9E2"/>
</linearGradient>
<linearGradient id="paint9_linear_487_2003" x1="27.1388" y1="20.6693" x2="23.2812" y2="20.6693" gradientUnits="userSpaceOnUse">
<stop stop-color="#0DB02B"/>
<stop offset="1" stop-color="#28A9E2"/>
</linearGradient>
<linearGradient id="paint10_linear_487_2003" x1="5.66215" y1="8.26639" x2="1.79297" y2="8.26639" gradientUnits="userSpaceOnUse">
<stop stop-color="#0DB02B"/>
<stop offset="1" stop-color="#28A9E2"/>
</linearGradient>
<linearGradient id="paint11_linear_487_2003" x1="22.2199" y1="3.72818" x2="19.1133" y2="3.72818" gradientUnits="userSpaceOnUse">
<stop stop-color="#0DB02B"/>
<stop offset="1" stop-color="#28A9E2"/>
</linearGradient>
<linearGradient id="paint12_linear_487_2003" x1="9.81282" y1="25.2101" x2="6.71289" y2="25.2101" gradientUnits="userSpaceOnUse">
<stop stop-color="#0DB02B"/>
<stop offset="1" stop-color="#28A9E2"/>
</linearGradient>
<linearGradient id="paint13_linear_487_2003" x1="61.9995" y1="45.2805" x2="0" y2="45.2805" gradientUnits="userSpaceOnUse">
<stop stop-color="#0DB02B"/>
<stop offset="1" stop-color="#28A9E2"/>
</linearGradient>
</defs>
</svg>
